<svg width="25" height="25" viewBox="0 0 25 25" fill="none" xmlns="http://www.w3.org/2000/svg">
<path fill-rule="evenodd" clip-rule="evenodd" d="M12.5 0C19.3925 0 25 5.6075 25 12.5C25 19.3925 19.3925 25 12.5 25C5.6075 25 0 19.3925 0 12.5C0 5.6075 5.6075 0 12.5 0ZM12.5 1.875C6.64125 1.875 1.875 6.64125 1.875 12.5C1.875 18.3587 6.64125 23.125 12.5 23.125C18.3587 23.125 23.125 18.3587 23.125 12.5C23.125 6.64125 18.3587 1.875 12.5 1.875ZM12.5049 15.9949C13.1961 15.9949 13.7549 16.5536 13.7549 17.2449C13.7549 17.9361 13.1961 18.4949 12.5049 18.4949C11.8136 18.4949 11.2486 17.9361 11.2486 17.2449C11.2486 16.5536 11.8024 15.9949 12.4924 15.9949H12.5049ZM12.4926 6.8175C13.0101 6.8175 13.4301 7.2375 13.4301 7.755V13.2788C13.4301 13.7963 13.0101 14.2163 12.4926 14.2163C11.9751 14.2163 11.5551 13.7963 11.5551 13.2788V7.755C11.5551 7.2375 11.9751 6.8175 12.4926 6.8175Z" fill="black"/>
</svg>
