<svg width="25" height="20" viewBox="0 0 25 20" fill="none" xmlns="http://www.w3.org/2000/svg">
<path d="M25 10.0001C25 10.5606 24.5835 11.0238 24.0431 11.0971L23.8929 11.1072L4.43169 11.1064L11.4624 18.1084C11.8957 18.5398 11.8972 19.2408 11.4658 19.6741C11.0736 20.0679 10.4587 20.105 10.0246 19.7844L9.90016 19.6774L0.969608 10.7853C0.912495 10.7284 0.862888 10.6668 0.820787 10.6018C0.808895 10.5823 0.796791 10.5623 0.785315 10.5419C0.774759 10.5244 0.765221 10.5062 0.756222 10.4878C0.743725 10.4611 0.731514 10.4335 0.720427 10.4053C0.711418 10.3836 0.703896 10.3624 0.697035 10.3411C0.688879 10.3147 0.680954 10.2866 0.674137 10.258C0.669069 10.238 0.665056 10.2188 0.661554 10.1996C0.656631 10.1709 0.652441 10.1412 0.64945 10.1112C0.64687 10.0882 0.645315 10.0655 0.644457 10.0428C0.644234 10.0291 0.643955 10.0146 0.643955 10.0001L0.64451 9.95726C0.645359 9.93553 0.646843 9.91382 0.648964 9.89217L0.643955 10.0001C0.643955 9.93028 0.650427 9.86193 0.662802 9.79566C0.665672 9.77983 0.669092 9.76358 0.672878 9.7474C0.680742 9.71407 0.689831 9.68198 0.700296 9.65052C0.705433 9.63488 0.711416 9.61818 0.717812 9.6016C0.730749 9.56829 0.74481 9.53654 0.760281 9.5056C0.767466 9.49106 0.775515 9.47583 0.783943 9.46076C0.797779 9.43617 0.812031 9.4128 0.827103 9.39003C0.837736 9.37391 0.84951 9.35713 0.861807 9.34061L0.871387 9.32785C0.901215 9.28889 0.933571 9.25196 0.968214 9.21731L0.969543 9.21629L9.90009 0.322641C10.3333 -0.10881 11.0343 -0.107358 11.4658 0.325882C11.858 0.719738 11.8924 1.33486 11.57 1.7676L11.4625 1.89154L4.43464 8.89217L23.8929 8.89305C24.5043 8.89305 25 9.38872 25 10.0001Z" fill="#626364"/>
</svg>
