<?xml version="1.0" encoding="UTF-8"?>
<svg width="10px" height="13px" viewBox="0 0 10 13" version="1.1" xmlns="http://www.w3.org/2000/svg" xmlns:xlink="http://www.w3.org/1999/xlink">
    <title>cur_play</title>
    <g id="页面-1" stroke="none" stroke-width="1" fill="none" fill-rule="evenodd">
        <g id="cur_play" fill="#E10205" fill-rule="nonzero">
            <path d="M0,4 C0,3.44772 0.447715,3 1,3 C1.55228,3 2,3.44772 2,4 L2,13 L0,13 L0,4 Z" id="路径"></path>
            <path d="M4,1 C4,0.44772 4.44772,0 5,0 C5.55228,0 6,0.44772 6,1 L6,13 L4,13 L4,1 Z" id="路径"></path>
            <path d="M8,7 C8,6.44772 8.44772,6 9,6 C9.55228,6 10,6.44772 10,7 L10,13 L8,13 L8,7 Z" id="路径"></path>
        </g>
    </g>
</svg>