<svg width="42" height="41" viewBox="0 0 42 41" fill="none" xmlns="http://www.w3.org/2000/svg">
<path fill-rule="evenodd" clip-rule="evenodd" d="M20.722 0.26709C32.148 0.26709 41.444 9.39391 41.444 20.612C41.444 31.83 32.148 40.9569 20.722 40.9569C9.296 40.9569 0 31.83 0 20.612C0 9.39391 9.296 0.26709 20.722 0.26709ZM20.722 3.21249C10.95 3.21249 3 11.0198 3 20.612C3 30.2061 10.95 38.0114 20.722 38.0114C30.494 38.0114 38.444 30.2061 38.444 20.612C38.444 11.0198 30.494 3.21249 20.722 3.21249ZM28.4652 13.0107C28.8592 13.3995 29.0032 13.9709 28.8352 14.4912L25.6512 24.484C25.5052 24.9454 25.1352 25.3067 24.6672 25.4501L14.4892 28.5781C14.3412 28.6233 14.1892 28.6449 14.0412 28.6449C13.6492 28.6449 13.2652 28.4937 12.9792 28.2148C12.5852 27.826 12.4412 27.2546 12.6092 26.7343L15.7952 16.7415C15.9412 16.2781 16.3092 15.9188 16.7772 15.7754L26.9552 12.6474C27.4892 12.4805 28.0692 12.6238 28.4652 13.0107ZM25.1172 16.2977L18.4232 18.3556L16.3292 24.9278L23.0212 22.8699L25.1172 16.2977Z" fill="black"/>
</svg>
