<svg width="25" height="25" viewBox="0 0 25 25" fill="none" xmlns="http://www.w3.org/2000/svg">
<path fill-rule="evenodd" clip-rule="evenodd" d="M24.8758 8.99966C28.1278 6.94366 32.4478 6.37566 36.1798 7.57166C44.2978 10.1897 46.8178 19.0397 44.5638 26.0817C41.0858 37.1417 26.2318 45.3917 25.6018 45.7377C25.3778 45.8617 25.1298 45.9237 24.8818 45.9237C24.6338 45.9237 24.3878 45.8637 24.1638 45.7417C23.5378 45.3997 8.7918 37.2717 5.1978 26.0837C5.1958 26.0837 5.1958 26.0817 5.1958 26.0817C2.9398 19.0377 5.4518 10.1857 13.5618 7.57166C17.3698 6.33966 21.5198 6.88166 24.8758 8.99966ZM14.4818 10.4277C7.9198 12.5437 6.2718 19.6017 8.0538 25.1677C10.8578 33.8917 21.9358 40.9457 24.8798 42.6917C27.8338 40.9277 38.9918 33.7957 41.7058 25.1757C43.4878 19.6037 41.8338 12.5457 35.2618 10.4277C32.0778 9.40566 28.3638 10.0277 25.7998 12.0117C25.2638 12.4237 24.5198 12.4317 23.9798 12.0237C21.2638 9.98166 17.7158 9.38366 14.4818 10.4277ZM33.3418 14.3995C36.0678 15.2815 37.9778 17.6955 38.2118 20.5495C38.2778 21.3755 37.6638 22.0995 36.8378 22.1655C36.7958 22.1695 36.7558 22.1715 36.7138 22.1715C35.9398 22.1715 35.2838 21.5775 35.2198 20.7935C35.0878 19.1495 33.9878 17.7615 32.4218 17.2555C31.6318 16.9995 31.1998 16.1535 31.4538 15.3675C31.7118 14.5795 32.5498 14.1515 33.3418 14.3995Z" fill="black"/>
</svg>
