<svg width="26" height="26" viewBox="0 0 26 26" fill="none" xmlns="http://www.w3.org/2000/svg">
<path fill-rule="evenodd" clip-rule="evenodd" d="M12.9041 2.25355C14.8897 0.935678 17.5274 0.571596 19.806 1.33822C24.7626 3.01633 26.3012 8.68908 24.925 13.2029C22.8014 20.2923 13.7321 25.5804 13.3474 25.8022C13.2106 25.8817 13.0592 25.9214 12.9078 25.9214C12.7564 25.9214 12.6062 25.883 12.4694 25.8048C12.0872 25.5855 3.08378 20.3756 0.8894 13.2042C0.888179 13.2042 0.888179 13.2029 0.888179 13.2029C-0.48926 8.6878 1.04448 3.01376 5.99618 1.33822C8.32122 0.548521 10.8551 0.895937 12.9041 2.25355ZM6.5579 3.16888C2.55136 4.52522 1.54515 9.04932 2.63318 12.6171C4.34521 18.209 11.1091 22.7306 12.9066 23.8497C14.7102 22.719 21.5229 18.1475 23.18 12.6222C24.268 9.0506 23.2581 4.5265 19.2455 3.16888C17.3014 2.51379 15.0338 2.91249 13.4683 4.18421C13.141 4.4483 12.6868 4.45343 12.3571 4.1919C10.6988 2.883 8.53248 2.49969 6.5579 3.16888ZM18.0732 5.71476C19.7376 6.28012 20.9038 7.82746 21.0467 9.65684C21.087 10.1863 20.7121 10.6504 20.2077 10.6927C20.1821 10.6952 20.1577 10.6965 20.132 10.6965C19.6595 10.6965 19.2589 10.3158 19.2198 9.81325C19.1392 8.75946 18.4676 7.86977 17.5115 7.54543C17.0291 7.38133 16.7654 6.83906 16.9204 6.33524C17.078 5.83014 17.5896 5.5558 18.0732 5.71476Z" fill="black"/>
</svg>
