<svg width="42" height="40" viewBox="0 0 42 40" fill="none" xmlns="http://www.w3.org/2000/svg">
<path fill-rule="evenodd" clip-rule="evenodd" d="M20.7314 2.16613C23.9834 0.110131 28.3034 -0.457869 32.0354 0.738131C40.1534 3.35613 42.6734 12.2061 40.4194 19.2481C36.9414 30.3081 22.0874 38.5581 21.4574 38.9041C21.2334 39.0281 20.9854 39.0901 20.7374 39.0901C20.4894 39.0901 20.2434 39.0301 20.0194 38.9081C19.3934 38.5661 4.64739 30.4381 1.05339 19.2501C1.05139 19.2501 1.05139 19.2481 1.05139 19.2481C-1.20461 12.2041 1.30739 3.35213 9.41739 0.738131C13.2254 -0.493869 17.3754 0.0481308 20.7314 2.16613ZM10.3374 3.59413C3.77539 5.71013 2.12739 12.7681 3.90939 18.3341C6.71339 27.0581 17.7914 34.1121 20.7354 35.8581C23.6894 34.0941 34.8474 26.9621 37.5614 18.3421C39.3434 12.7701 37.6894 5.71213 31.1174 3.59413C27.9334 2.57213 24.2194 3.19413 21.6554 5.17813C21.1194 5.59013 20.3754 5.59813 19.8354 5.19013C17.1194 3.14813 13.5714 2.55013 10.3374 3.59413ZM29.1974 7.56593C31.9234 8.44793 33.8334 10.8619 34.0674 13.7159C34.1334 14.5419 33.5194 15.2659 32.6934 15.3319C32.6514 15.3359 32.6114 15.3379 32.5694 15.3379C31.7954 15.3379 31.1394 14.7439 31.0754 13.9599C30.9434 12.3159 29.8434 10.9279 28.2774 10.4219C27.4874 10.1659 27.0554 9.31993 27.3094 8.53393C27.5674 7.74593 28.4054 7.31793 29.1974 7.56593Z" fill="black"/>
</svg>
