<svg width="41" height="43" viewBox="0 0 41 43" fill="none" xmlns="http://www.w3.org/2000/svg">
<path fill-rule="evenodd" clip-rule="evenodd" d="M23.434 28.3266C25.842 28.3266 27.802 30.2372 27.802 32.5857V38.6257C27.802 39.1304 28.214 39.5349 28.742 39.5466H32.554C35.558 39.5466 38 37.1785 38 34.2685V17.138C37.986 16.1366 37.5 15.194 36.666 14.5677L23.48 4.24303C21.71 2.86655 19.234 2.86655 17.458 4.24696L4.362 14.5637C3.496 15.2098 3.01 16.1523 3 17.1714V34.2685C3 37.1785 5.442 39.5466 8.446 39.5466H12.294C12.836 39.5466 13.276 39.1245 13.276 38.6061C13.276 38.4922 13.29 38.3783 13.314 38.2703V32.5857C13.314 30.2509 15.262 28.3423 17.652 28.3266H23.434ZM32.554 42.492H28.706C26.502 42.441 24.802 40.7425 24.802 38.6257V32.5857C24.802 31.8611 24.188 31.272 23.434 31.272H17.662C16.924 31.2759 16.314 31.867 16.314 32.5857V38.6061C16.314 38.7533 16.294 38.8947 16.252 39.0282C16.036 40.9722 14.344 42.492 12.294 42.492H8.446C3.788 42.492 0 38.8024 0 34.2685V17.1576C0.02 15.2058 0.936 13.4189 2.518 12.2427L15.588 1.94365C18.466 -0.294853 22.476 -0.294853 25.348 1.93973L38.512 12.2486C40.058 13.4052 40.974 15.1882 41 17.1164V34.2685C41 38.8024 37.212 42.492 32.554 42.492Z" fill="black"/>
</svg>
