<svg width="28" height="25" viewBox="0 0 28 25" fill="none" xmlns="http://www.w3.org/2000/svg">
<path d="M26.7727 11.8806C27.5619 10.6499 28 9.19881 28 7.68794C28 5.63568 27.2108 3.70617 25.7785 2.25196C24.3804 0.835514 22.5348 0.0423072 20.565 0.0013878C18.443 -0.0395316 16.3924 0.826071 14.9259 2.38101C14.5934 2.73354 14.2983 3.11441 14.0404 3.51731C14.0124 3.55823 13.9534 3.55823 13.9285 3.51731C13.6023 3.00739 13.2139 2.5321 12.7665 2.10402C11.4181 0.810333 9.64092 0.0643406 7.78296 0.0108306C5.67954 -0.0489747 3.69419 0.753675 2.21527 2.2551C0.786063 3.70302 0 5.62938 0 7.67535C0 9.02569 0.351087 10.354 1.01598 11.5186C1.10297 11.6697 1.19308 11.8145 1.28939 11.9593C1.2925 11.9624 1.2925 11.9656 1.29561 11.9719C1.36396 12.1482 1.83933 12.6864 1.83933 12.6864C2.08167 12.9697 2.34265 13.2341 2.61917 13.4765L2.62228 13.4796L13.9751 24.9811C14 25.0063 14.0435 25.0063 14.0715 24.9811L25.5424 13.36C25.7071 13.2058 25.8655 13.0452 26.0178 12.8784C26.0084 12.8753 26.5988 12.1733 26.7727 11.8806ZM5.52419 12.8627C5.52419 12.8627 4.52685 11.8177 4.32179 11.6445L4.31869 11.6414L3.62583 10.9395L3.61962 10.9332C2.7652 9.8787 2.34887 8.50318 2.51354 7.05526C2.77142 4.77637 4.51443 2.94129 6.75144 2.58875C9.91123 2.09143 12.6454 4.56548 12.6454 7.67535C12.6454 8.37098 13.2015 8.93441 13.8881 8.93441H13.8913C13.9503 8.94385 14.0093 8.947 14.0684 8.947C14.755 8.947 15.3111 8.38357 15.3111 7.68794C15.3111 4.83932 17.601 2.51951 20.4128 2.51951C23.2246 2.51951 25.5144 4.83932 25.5144 7.68794C25.5144 8.97848 25.0391 10.2029 24.2064 11.1441L24.2033 11.1472L23.8273 11.5281C23.6596 11.6823 23.0009 12.3055 22.8331 12.5353L22.8269 12.5416L14.0652 21.418C14.0404 21.4432 13.9969 21.4432 13.9689 21.418L5.52419 12.8627Z" fill="white"/>
</svg>
