<svg width="32" height="39" viewBox="0 0 32 39" fill="none" xmlns="http://www.w3.org/2000/svg">
<path fill-rule="evenodd" clip-rule="evenodd" d="M31.68 31.444C31.68 37.9161 22.64 38.6642 15.842 38.6642L15.3555 38.6638C11.0244 38.6535 0 38.385 0 31.4048C0 25.0648 8.67671 24.2175 15.423 24.1856L16.3285 24.185C20.6593 24.1953 31.68 24.4638 31.68 31.444ZM15.842 27.13C7.32 27.13 3 28.5674 3 31.4048C3 34.2677 7.32 35.7188 15.842 35.7188C24.362 35.7188 28.68 34.2814 28.68 31.444C28.68 28.5811 24.362 27.13 15.842 27.13ZM15.842 -0.353352C21.698 -0.353352 26.46 4.32395 26.46 10.0734C26.46 15.8228 21.698 20.4981 15.842 20.4981H15.778C9.934 20.4805 5.2 15.8012 5.21994 10.0675C5.21994 4.32395 9.984 -0.353352 15.842 -0.353352ZM15.842 2.45067C11.56 2.45067 8.07596 5.8693 8.07596 10.0734C8.062 14.2637 11.52 17.6804 15.784 17.6961L15.842 19.0981V17.6961C20.122 17.6961 23.604 14.2755 23.604 10.0734C23.604 5.8693 20.122 2.45067 15.842 2.45067Z" fill="black"/>
</svg>
