<?xml version="1.0" encoding="UTF-8"?>
<svg width="25px" height="25px" viewBox="0 0 77 76" version="1.1" xmlns="http://www.w3.org/2000/svg" xmlns:xlink="http://www.w3.org/1999/xlink">
    <title>编组</title>
    <g id="页面-4" stroke="none" stroke-width="1" fill="none" fill-rule="evenodd">
        <g id="编组" fill="#000000">
            <path d="M3.90625,71.3047 C6.32812,72.6914 9.29688,72.6914 11.7188,71.3047 L57.3828,44.9375 C59.8047,43.5508 61.2891,40.9531 61.2891,38.1797 C61.2891,35.3867 59.8047,32.8086 57.3828,31.4219 L11.7188,5.05469 C10.5078,4.35157 9.16016,4 7.8125,4 C6.46484,4 5.11719,4.35157 3.90625,5.05469 C1.48438,6.44141 0,9.01953 0,11.8125 L0,64.5469 C0,67.3399 1.48438,69.918 3.90625,71.3047 Z M15.625,25.3477 L37.8516,38.1797 L15.625,51.0117 L15.625,25.3477 Z" id="形状" fill-rule="nonzero"></path>
            <polygon id="路径" fill-rule="nonzero" points="42.012 38.0114 14.9954 54.439 15.0162 21.5496"></polygon>
            <path d="M68.8125,0 C64.4961,0 61,3.49609 61,7.8125 L61,67.5781 C61,71.8945 64.4961,75.3906 68.8125,75.3906 C73.1289,75.3906 76.625,71.8945 76.625,67.5781 L76.625,7.8125 C76.625,3.49609 73.1289,0 68.8125,0 Z" id="路径"></path>
        </g>
    </g>
</svg>