<svg width="200" height="200" viewBox="0 0 200 200" fill="none" xmlns="http://www.w3.org/2000/svg">
<path d="M181.25 65.4492C176.836 55.0195 170.527 45.6641 162.48 37.6172C154.434 29.5703 145.078 23.2617 134.648 18.8477C123.848 14.2773 112.383 11.9727 100.566 11.9727C88.75 11.9727 77.2851 14.2773 66.4844 18.8477C56.0547 23.2617 46.6992 29.5703 38.6523 37.6172C30.6055 45.6641 24.2969 55.0195 19.8828 65.4492C15.3125 76.25 13.0078 87.7148 13.0078 99.5312C13.0078 111.348 15.332 122.812 19.8828 133.613C24.2969 144.043 30.6055 153.398 38.6523 161.445C46.6992 169.492 56.0547 175.801 66.4844 180.215C77.2851 184.785 88.75 187.09 100.566 187.09C112.383 187.09 123.848 184.766 134.648 180.215C145.078 175.801 154.434 169.492 162.48 161.445C170.527 153.398 176.836 144.043 181.25 133.613C185.82 122.812 188.125 111.348 188.125 99.5312C188.125 87.7148 185.801 76.25 181.25 65.4492ZM100.566 171.465C60.8984 171.465 28.6328 139.199 28.6328 99.5312C28.6328 59.8633 60.8984 27.5977 100.566 27.5977C140.234 27.5977 172.5 59.8633 172.5 99.5312C172.5 139.18 140.234 171.465 100.566 171.465V171.465Z" fill="black"/>
<path d="M80.8203 61.8359C76.5039 61.8359 73.0078 65.332 73.0078 69.6484V129.414C73.0078 133.73 76.5039 137.227 80.8203 137.227C85.1367 137.227 88.6328 133.73 88.6328 129.414V69.6484C88.6328 65.332 85.1367 61.8359 80.8203 61.8359ZM120.313 61.8359C115.996 61.8359 112.5 65.332 112.5 69.6484V129.414C112.5 133.73 115.996 137.227 120.313 137.227C124.629 137.227 128.125 133.73 128.125 129.414V69.6484C128.125 65.332 124.629 61.8359 120.313 61.8359Z" fill="black"/>
</svg>
