<svg width="200" height="200" viewBox="0 0 200 200" fill="none" xmlns="http://www.w3.org/2000/svg">
<path d="M180.371 65.8008C175.957 55.3711 169.648 46.0156 161.602 37.9687C153.555 29.9219 144.199 23.6133 133.77 19.1992C122.988 14.6484 111.523 12.3242 99.707 12.3242C87.8906 12.3242 76.4258 14.6484 65.625 19.1992C55.1953 23.6133 45.8398 29.9219 37.793 37.9687C29.7461 46.0156 23.4375 55.3711 19.0234 65.8008C14.4531 76.6016 12.1484 88.0664 12.1484 99.8828C12.1484 111.699 14.4727 123.164 19.0234 133.965C23.4375 144.395 29.7461 153.75 37.793 161.797C45.8398 169.844 55.1953 176.152 65.625 180.566C76.4258 185.137 87.8906 187.441 99.707 187.441C111.523 187.441 122.988 185.117 133.789 180.566C144.219 176.152 153.574 169.844 161.621 161.797C169.668 153.75 175.977 144.395 180.391 133.965C184.961 123.164 187.266 111.699 187.266 99.8828C187.266 88.0664 184.941 76.6016 180.371 65.8008V65.8008ZM99.707 171.816C60.0391 171.816 27.7734 139.551 27.7734 99.8828C27.7734 60.2148 60.0391 27.9492 99.707 27.9492C139.375 27.9492 171.641 60.2148 171.641 99.8828C171.641 139.551 139.375 171.816 99.707 171.816V171.816Z" fill="black"/>
<path d="M72.9062 133.305C75.3281 134.691 78.2969 134.691 80.7188 133.305L126.383 106.938C128.805 105.551 130.289 102.953 130.289 100.18C130.289 97.3867 128.805 94.8086 126.383 93.4219L80.7188 67.0547C79.5078 66.3516 78.1602 66 76.8125 66C75.4648 66 74.1172 66.3516 72.9062 67.0547C70.4844 68.4414 69 71.0195 69 73.8125V126.547C69 129.34 70.4844 131.918 72.9062 133.305ZM84.625 87.3477L106.852 100.18L84.625 113.012V87.3477Z" fill="black"/>
<path d="M111.012 100.011L83.9954 116.439L84.0162 83.5496L111.012 100.011Z" fill="black"/>
</svg>
