<?xml version="1.0" encoding="UTF-8"?>
<svg width="28px" height="26px" viewBox="0 0 28 26" version="1.1" xmlns="http://www.w3.org/2000/svg" xmlns:xlink="http://www.w3.org/1999/xlink">
    <title>play_list 2</title>
    <g id="页面-1" stroke="none" stroke-width="1" fill="none" fill-rule="evenodd">
        <g id="play_list" transform="translate(0.000000, 1.000000)" fill="#333333" fill-rule="nonzero">
            <path d="M12.6,10.2339001 L26.6,10.2339001 C26.9713,10.2339001 27.3274,10.0783001 27.59,9.8014001 C27.8525,9.5244001 28,9.1489001 28,8.7572001 C28,8.3656001 27.8525,7.9900401 27.59,7.7131201 C27.3274,7.4362001 26.9713,7.2806301 26.6,7.2806301 L12.6,7.2806301 C12.2287,7.2806301 11.8726,7.4362001 11.6101,7.7131201 C11.3475,7.9900401 11.2,8.3656001 11.2,8.7572001 C11.2,9.1489001 11.3475,9.5244001 11.6101,9.8014001 C11.8726,10.0783001 12.2287,10.2339001 12.6,10.2339001 Z M26.6,22.0468001 L1.4,22.0468001 C1.0287,22.0468001 0.6726,22.2023001 0.410049,22.4793001 C0.147499,22.7562001 0,23.1318001 0,23.5234001 C0,23.9150001 0.147499,24.2906001 0.410049,24.5675001 C0.6726,24.8444001 1.0287,25.0000001 1.4,25.0000001 L26.6,25.0000001 C26.9713,25.0000001 27.3274,24.8444001 27.59,24.5675001 C27.8525,24.2906001 28,23.9150001 28,23.5234001 C28,23.1318001 27.8525,22.7562001 27.59,22.4793001 C27.3274,22.2023001 26.9713,22.0468001 26.6,22.0468001 Z M1.4,17.6169001 L26.6,17.6169001 C26.9713,17.6169001 27.3274,17.4614001 27.59,17.1844001 C27.8525,16.9075001 28,16.5319001 28,16.1403001 C28,15.7487001 27.8525,15.3731001 27.59,15.0962001 C27.3274,14.8193001 26.9713,14.6637001 26.6,14.6637001 L1.4,14.6637001 C1.0287,14.6637001 0.6726,14.8193001 0.410049,15.0962001 C0.147499,15.3731001 0,15.7487001 0,16.1403001 C0,16.5319001 0.147499,16.9075001 0.410049,17.1844001 C0.6726,17.4614001 1.0287,17.6169001 1.4,17.6169001 Z" id="形状"></path>
            <path d="M9.03729,4.1467701 C9.78979,4.5906301 9.80454,5.7272201 9.06385,6.1926301 L2.39758,10.3814001 C1.65689,10.8468001 0.716266,10.2920001 0.704465,9.3827001 L0.59825,1.1992501 C0.586448,0.289972097 1.51232,-0.291797903 2.26482,0.152058097 L9.03729,4.1467701 Z" id="路径"></path>
        </g>
    </g>
</svg>