<svg width="25" height="25" viewBox="0 0 25 25" fill="none" xmlns="http://www.w3.org/2000/svg">
<path fill-rule="evenodd" clip-rule="evenodd" d="M12.5 0C19.3927 0 25 5.60732 25 12.5C25 19.3927 19.3927 25 12.5 25C5.60732 25 0 19.3927 0 12.5C0 5.60732 5.60732 0 12.5 0ZM12.5 1.82927C6.61585 1.82927 1.82927 6.61585 1.82927 12.5C1.82927 18.3841 6.61585 23.1707 12.5 23.1707C18.3841 23.1707 23.1707 18.3841 23.1707 12.5C23.1707 6.61585 18.3841 1.82927 12.5 1.82927ZM11.9888 8.24561C12.6229 8.51024 17.0729 10.7895 17.0729 12.4944C17.0729 14.092 13.068 16.3261 12.0449 16.7529C11.6461 16.9188 11.1912 17.0749 10.7656 17.0749C10.4363 17.0749 10.1241 16.981 9.86927 16.7273C9.67293 16.5334 9.14854 16.0151 9.1461 12.6017C9.14488 8.97732 9.69 8.43829 9.86927 8.25902C10.5071 7.62732 11.5461 8.06024 11.9888 8.24561ZM11.1388 9.86146C10.9229 11.0822 10.9193 13.998 11.1351 15.1566C12.2059 14.7785 14.5254 13.2541 15.1498 12.4993C14.5278 11.7663 12.2376 10.2737 11.1388 9.86146Z" fill="black"/>
</svg>
