<?xml version="1.0" encoding="UTF-8"?>
<svg width="25px" height="25px" viewBox="0 0 25 25" version="1.1" xmlns="http://www.w3.org/2000/svg" xmlns:xlink="http://www.w3.org/1999/xlink">
    <title>编组</title>
    <g id="页面-3" stroke="none" stroke-width="1" fill="none" fill-rule="evenodd">
        <g id="编组" transform="translate(0.492000, 0.000000)" fill="#000000" fill-rule="nonzero">
            <path d="M72.891,5.04003 C70.469,3.65331 67.5,3.65331 65.078,5.04003 L19.414,31.4072 C16.992,32.7939 15.508,35.3916 15.508,38.165 C15.508,40.958 16.992,43.5361 19.414,44.9228 L65.078,71.29 C66.289,71.9932 67.637,72.3447 68.985,72.3447 C70.332,72.3447 71.68,71.9932 72.891,71.29 C75.313,69.9033 76.797,67.3252 76.797,64.5322 L76.797,11.7978 C76.797,9.00488 75.313,6.42675 72.891,5.04003 Z M61.172,50.9971 L38.945,38.165 L61.172,25.333 L61.172,50.9971 Z" id="形状"></path>
            <polygon id="路径" points="34.785 38.3334 61.802 21.9058 61.781 54.7951"></polygon>
            <path d="M7.813,0 C3.496,0 0,3.49609 0,7.8125 L0,67.5781 C0,71.8945 3.496,75.3906 7.813,75.3906 C12.129,75.3906 15.625,71.8945 15.625,67.5781 L15.625,7.8125 C15.625,3.49609 12.129,0 7.813,0 Z" id="形状"></path>
        </g>
    </g>
</svg>