<svg width="39" height="37" viewBox="0 0 39 37" fill="none" xmlns="http://www.w3.org/2000/svg">
<path fill-rule="evenodd" clip-rule="evenodd" d="M19.4998 3.54007C19.3178 3.54007 18.8698 3.58916 18.6318 4.0565L14.9798 11.2256C14.4018 12.3586 13.2878 13.146 11.9998 13.3267L3.82383 14.4832C3.28383 14.5598 3.09983 14.9525 3.04383 15.1175C2.99383 15.2765 2.91383 15.681 3.28583 16.0305L9.19783 21.6072C10.1398 22.4967 10.5678 23.7789 10.3438 25.0337L8.95183 32.9077C8.86583 33.4006 9.17983 33.6872 9.31983 33.7854C9.46783 33.8954 9.86383 34.1133 10.3538 33.862L17.6638 30.141C18.8158 29.5578 20.1878 29.5578 21.3358 30.141L28.6438 33.86C29.1358 34.1094 29.5318 33.8915 29.6818 33.7854C29.8218 33.6872 30.1358 33.4006 30.0498 32.9077L28.6538 25.0337C28.4298 23.7789 28.8578 22.4967 29.7998 21.6072L35.7118 16.0305C36.0858 15.681 36.0058 15.2746 35.9538 15.1175C35.8998 14.9525 35.7158 14.5598 35.1758 14.4832L26.9998 13.3267C25.7138 13.146 24.5998 12.3586 24.0218 11.2236L20.3658 4.0565C20.1298 3.58916 19.6818 3.54007 19.4998 3.54007ZM9.89383 36.9213C9.06783 36.9213 8.24783 36.666 7.54583 36.1633C6.33383 35.2915 5.73983 33.8522 5.99783 32.403L7.38983 24.529C7.44183 24.2364 7.33983 23.9399 7.11983 23.7318L1.20783 18.1552C0.119832 17.1321 -0.270168 15.6201 0.189832 14.2162C0.653832 12.7965 1.88183 11.7813 3.39583 11.5692L11.5718 10.4127C11.8878 10.3695 12.1598 10.179 12.2958 9.90803L15.9498 2.73696C16.6238 1.41545 17.9838 0.594666 19.4998 0.594666C21.0158 0.594666 22.3758 1.41545 23.0498 2.73696L26.7058 9.90607C26.8438 10.179 27.1138 10.3695 27.4278 10.4127L35.6038 11.5692C37.1178 11.7813 38.3458 12.7965 38.8098 14.2162C39.2698 15.6201 38.8778 17.1321 37.7898 18.1552L31.8778 23.7318C31.6578 23.9399 31.5578 24.2364 31.6098 24.527L33.0038 32.403C33.2598 33.8542 32.6658 35.2935 31.4518 36.1633C30.2218 37.0489 28.6198 37.1687 27.2618 36.4736L19.9558 32.7565C19.6698 32.6112 19.3278 32.6112 19.0418 32.7565L11.7358 36.4756C11.1518 36.774 10.5218 36.9213 9.89383 36.9213Z" fill="black"/>
</svg>
