<svg width="25" height="25" viewBox="0 0 25 25" fill="none" xmlns="http://www.w3.org/2000/svg">
<path fill-rule="evenodd" clip-rule="evenodd" d="M12.5 0C19.3925 0 25 5.6075 25 12.5C25 19.3925 19.3925 25 12.5 25C5.6075 25 0 19.3925 0 12.5C0 5.6075 5.6075 0 12.5 0ZM12.5 1.875C6.64125 1.875 1.875 6.64125 1.875 12.5C1.875 18.3587 6.64125 23.125 12.5 23.125C18.3587 23.125 23.125 18.3587 23.125 12.5C23.125 6.64125 18.3587 1.875 12.5 1.875ZM12.0765 6.36925C12.5952 6.36925 13.014 6.78925 13.014 7.30675V12.8342L17.2703 15.3718C17.714 15.638 17.8602 16.213 17.5952 16.658C17.419 16.9517 17.1077 17.1155 16.789 17.1155C16.6252 17.1155 16.4603 17.073 16.309 16.9843L11.5965 14.173C11.314 14.003 11.139 13.6968 11.139 13.3668V7.30675C11.139 6.78925 11.559 6.36925 12.0765 6.36925Z" fill="black"/>
</svg>
